<?xml version="1.0" standalone="no"?>
<!DOCTYPE svg PUBLIC "-//W3C//DTD SVG 20010904//EN"
 "http://www.w3.org/TR/2001/REC-SVG-20010904/DTD/svg10.dtd">
<svg version="1.0" xmlns="http://www.w3.org/2000/svg"
 width="300.000000pt" height="235.000000pt" viewBox="0 0 300.000000 235.000000"
 preserveAspectRatio="xMidYMid meet">
<metadata>
Created by potrace 1.10, written by Peter Selinger 2001-2011
</metadata>
<g transform="translate(0.000000,235.000000) scale(0.100000,-0.100000)"
fill="#000000" stroke="none">
<path d="M1325 1814 c-77 -30 -164 -62 -192 -71 -29 -9 -53 -19 -53 -22 0 -3
41 -21 90 -39 l90 -33 182 70 c100 39 188 71 195 71 34 0 5 18 -76 48 -48 17
-90 32 -92 31 -2 -1 -67 -25 -144 -55z m195 -4 c21 -14 9 -21 -137 -75 -106
-39 -125 -43 -152 -34 -17 6 -31 15 -31 19 0 4 46 24 103 44 56 21 109 41 117
46 20 13 81 12 100 0z"/>
<path d="M1520 1710 c-96 -38 -181 -70 -187 -70 -32 0 -6 -17 64 -42 l77 -28
198 73 c109 39 198 74 198 77 0 5 -161 61 -170 60 -3 -1 -84 -32 -180 -70z
m207 19 l28 -11 -45 -20 c-151 -67 -270 -97 -270 -68 0 6 199 91 257 109 1 1
14 -4 30 -10z"/>
<path d="M1045 1530 c0 -148 1 -160 18 -160 34 0 56 -20 68 -60 13 -43 24 -48
55 -25 32 24 69 18 98 -16 30 -35 32 -57 11 -85 -24 -31 -18 -51 17 -58 38 -8
58 -23 58 -45 0 -10 18 -26 45 -39 l45 -22 0 258 0 259 -202 74 c-111 41 -204
75 -207 77 -3 1 -6 -70 -6 -158z m274 19 c108 -38 101 -22 101 -244 0 -130 -4
-195 -11 -195 -5 0 -25 12 -43 27 -30 23 -33 30 -29 63 10 74 -44 133 -121
132 -40 -1 -49 4 -91 44 l-46 45 2 92 c1 51 5 97 11 104 7 9 30 4 91 -18 45
-17 107 -39 136 -50z"/>
<path d="M1693 1612 l-203 -76 0 -258 0 -258 55 27 55 27 0 189 c0 208 6 234
60 262 16 8 43 15 60 15 16 0 30 4 30 9 0 26 34 41 91 41 l59 0 0 34 c0 19 3
41 6 50 3 9 2 15 -2 15 -5 -1 -100 -35 -211 -77z m-93 -87 c0 -3 -6 -16 -14
-28 -11 -16 -15 -70 -18 -203 -5 -176 -9 -210 -29 -199 -11 7 -12 395 -1 411
11 17 62 32 62 19z"/>
<path d="M1791 1546 c-7 -8 -11 -32 -9 -53 l3 -38 130 0 130 0 3 44 c2 28 -1
47 -10 52 -7 5 -63 9 -124 9 -85 0 -114 -3 -123 -14z m215 -37 c11 -19 -16
-27 -85 -27 -76 1 -91 5 -91 24 0 18 165 20 176 3z"/>
<path d="M1660 1480 c-19 -19 -20 -33 -20 -345 0 -312 1 -326 20 -345 19 -19
33 -20 253 -20 194 0 236 3 255 16 22 15 22 15 22 348 0 310 -1 334 -18 349
-10 10 -33 17 -50 17 -27 0 -32 -4 -32 -25 0 -14 -9 -34 -20 -45 -18 -18 -33
-20 -154 -20 -133 0 -135 0 -155 26 -12 15 -21 35 -21 45 0 26 -54 25 -80 -1z
m64 -55 c10 -14 28 -31 42 -37 13 -6 24 -17 24 -23 0 -18 -29 -40 -54 -41 -12
-1 -29 -5 -38 -9 -16 -6 -18 0 -18 57 0 84 13 100 44 53z m421 14 c10 -16 15
-61 9 -91 -5 -26 -6 -27 -29 -12 -18 12 -45 15 -117 12 -51 -2 -99 -6 -107 -8
-8 -3 -16 2 -18 11 -4 15 9 17 87 20 91 4 92 4 123 41 35 39 42 43 52 27z
m-291 -98 c8 -12 -65 -131 -80 -131 -5 0 -25 16 -44 35 -26 27 -31 38 -22 47
9 9 17 6 37 -12 14 -13 26 -22 28 -19 2 2 14 23 27 47 23 40 42 52 54 33z
m271 -40 c10 -17 -14 -22 -113 -23 -82 -1 -97 2 -100 16 -3 14 9 16 102 16 58
0 107 -4 111 -9z m-102 -61 c72 0 98 4 107 15 7 8 16 12 21 10 8 -6 10 -113 2
-127 -2 -4 -16 0 -31 8 -32 17 -193 19 -208 4 -8 -8 -22 0 -48 26 -20 20 -36
38 -36 41 0 3 9 18 21 34 l21 29 28 -20 c23 -17 44 -20 123 -20z m-249 -64
c15 -5 16 -9 6 -21 -7 -8 -23 -15 -37 -15 -13 0 -33 -5 -44 -10 -18 -10 -19
-7 -19 38 0 27 3 51 6 55 4 3 21 -4 38 -17 17 -13 39 -26 50 -30z m81 -16 c6
-9 -59 -125 -75 -135 -9 -6 -80 54 -80 67 0 18 31 20 50 3 11 -10 21 -16 23
-14 2 2 15 23 30 47 27 42 41 50 52 32z m270 -60 c0 -12 -18 -15 -105 -15 -93
0 -105 2 -108 18 -3 16 5 17 105 15 88 -2 108 -6 108 -18z m-228 -30 c22 -17
41 -20 124 -20 73 0 101 4 113 15 13 13 15 13 20 -2 8 -24 5 -123 -3 -123 -3
0 -15 7 -25 15 -23 17 -169 21 -210 5 -18 -6 -26 -6 -26 1 0 6 -14 24 -31 40
l-30 28 17 31 c10 16 20 30 22 30 2 0 15 -9 29 -20z m-129 -74 c22 -7 23 -9 6
-27 -10 -12 -25 -17 -35 -14 -10 4 -27 1 -39 -5 -19 -10 -20 -8 -20 46 l0 56
33 -24 c17 -14 42 -28 55 -32z m92 -24 c0 -14 -76 -132 -86 -132 -5 0 -25 16
-44 35 -26 27 -31 38 -22 47 9 9 17 6 36 -11 l25 -23 31 50 c21 34 36 49 46
45 7 -3 14 -8 14 -11z m265 -62 c0 -12 -19 -16 -99 -18 -63 -2 -103 1 -112 9
-27 23 -1 30 104 27 87 -2 107 -6 107 -18z m-225 -31 c24 -19 41 -21 121 -20
50 1 100 6 110 12 11 5 19 8 19 5 0 -2 3 -11 6 -19 3 -8 -2 -22 -11 -31 -14
-13 -42 -16 -181 -16 l-164 0 32 45 c18 25 33 45 35 45 2 0 17 -10 33 -21z
m-178 -44 c29 -25 29 -25 6 -25 -26 0 -48 17 -48 37 0 19 8 16 42 -12z"/>
<path d="M1020 1305 c-5 -14 -10 -33 -10 -41 0 -8 -12 -20 -26 -26 -22 -10
-32 -9 -63 8 -40 23 -56 22 -72 -7 -8 -15 -5 -27 11 -53 28 -47 15 -80 -37
-93 -35 -8 -38 -12 -38 -43 0 -31 3 -35 38 -43 52 -13 65 -46 37 -93 -16 -26
-19 -38 -11 -53 16 -29 32 -31 70 -8 47 28 81 15 95 -38 10 -35 16 -40 43 -43
28 -3 33 0 38 25 9 42 20 57 47 67 20 7 32 4 56 -14 31 -23 32 -23 52 -5 24
21 25 43 5 69 -33 43 -13 83 48 95 23 5 33 13 35 29 5 31 -12 49 -53 56 -45 9
-56 44 -30 92 31 57 -3 91 -60 60 -42 -23 -83 -13 -91 23 -9 42 -19 56 -48 59
-20 3 -28 -2 -36 -23z m151 -102 c27 3 49 4 49 2 0 -2 -4 -15 -10 -29 -12 -33
2 -74 37 -103 l26 -21 -37 -38 c-38 -39 -42 -59 -21 -106 6 -15 1 -17 -42 -11
-47 5 -51 4 -85 -31 l-35 -36 -17 25 c-24 37 -69 57 -101 45 -37 -14 -37 -15
-29 35 6 42 4 47 -29 80 l-35 35 35 35 c33 33 35 38 29 80 -8 49 -8 49 26 36
31 -12 81 9 103 43 l17 26 35 -36 c33 -35 37 -36 84 -31z"/>
<path d="M990 1164 c-87 -55 -86 -161 3 -228 71 -53 197 16 197 107 0 43 -29
97 -64 118 -37 23 -102 24 -136 3z m127 -36 c64 -52 37 -159 -42 -174 -107
-20 -159 128 -64 183 27 15 83 11 106 -9z"/>
<path d="M120 240 c0 -61 3 -81 13 -77 8 2 12 27 12 77 0 50 -4 75 -12 78 -10
3 -13 -17 -13 -78z"/>
<path d="M184 306 c-3 -7 -4 -42 -2 -76 4 -81 26 -94 30 -19 l3 53 33 -53 c18
-29 38 -51 45 -48 16 5 17 149 0 154 -8 3 -13 -13 -15 -49 l-3 -53 -34 53
c-34 53 -48 62 -57 38z"/>
<path d="M330 306 c0 -19 40 -128 51 -140 6 -6 14 -5 21 2 16 16 58 133 52
144 -12 20 -25 4 -42 -54 l-18 -63 -20 59 c-19 56 -44 86 -44 52z"/>
<path d="M485 311 c-3 -2 -5 -35 -5 -73 l0 -68 45 0 c25 0 48 0 52 -1 4 0 9 4
11 10 2 7 -12 11 -37 11 -34 0 -41 3 -41 19 0 16 8 20 38 23 45 4 40 23 -5 22
-26 -1 -33 3 -33 17 0 16 8 19 41 19 28 0 39 4 36 13 -4 11 -92 19 -102 8z"/>
<path d="M618 249 c-3 -73 2 -96 20 -85 5 3 7 26 4 51 -2 25 -2 45 2 45 3 0
20 -23 37 -50 17 -28 36 -49 43 -47 14 5 15 146 1 150 -5 1 -11 -20 -13 -47
l-3 -49 -35 52 c-19 28 -39 51 -43 51 -5 0 -11 -32 -13 -71z"/>
<path d="M764 311 c-11 -11 -2 -21 19 -21 21 0 22 -4 22 -62 0 -49 3 -63 15
-63 12 0 15 13 14 63 -1 59 0 62 23 62 15 0 23 5 21 12 -4 11 -104 19 -114 9z"/>
<path d="M915 295 c-33 -32 -33 -78 1 -112 20 -20 31 -24 57 -19 41 8 57 30
57 78 0 72 -66 103 -115 53z m83 -43 c2 -18 -2 -40 -9 -48 -16 -20 -46 -17
-59 5 -23 45 -4 84 40 79 20 -2 26 -9 28 -36z"/>
<path d="M1064 305 c-3 -7 -4 -41 -2 -76 3 -67 21 -88 26 -31 4 42 25 41 51
-3 11 -19 25 -35 31 -35 16 0 12 31 -7 53 -17 18 -17 19 0 28 21 12 22 42 2
59 -21 17 -95 21 -101 5z m81 -35 c0 -9 -11 -16 -27 -18 -23 -3 -28 1 -28 18
0 17 5 21 28 18 16 -2 27 -9 27 -18z"/>
<path d="M1190 307 c0 -7 8 -24 17 -37 10 -13 20 -42 23 -64 6 -50 30 -61 30
-14 0 19 11 49 25 71 24 34 26 57 6 57 -5 0 -14 -13 -21 -30 -7 -16 -16 -30
-21 -30 -5 0 -15 14 -24 30 -16 31 -35 40 -35 17z"/>
<path d="M1387 313 c-4 -3 -7 -40 -7 -80 0 -55 3 -74 13 -70 8 3 11 21 8 58
-4 63 6 60 23 -8 16 -63 37 -63 51 2 l12 50 4 -50 c6 -76 24 -55 24 28 0 65
-2 72 -20 72 -14 0 -22 -11 -30 -42 -14 -58 -22 -61 -30 -11 -8 48 -29 71 -48
51z"/>
<path d="M1593 308 c-5 -7 -20 -39 -33 -71 -17 -45 -20 -61 -11 -70 9 -9 13
-6 17 11 8 30 69 32 79 2 7 -21 20 -26 29 -12 7 11 -48 145 -61 149 -5 2 -14
-2 -20 -9z m32 -65 c5 -19 2 -23 -14 -23 -23 0 -24 3 -15 38 7 26 18 20 29
-15z"/>
<path d="M1707 313 c-4 -3 -7 -40 -7 -80 0 -55 3 -74 13 -70 7 2 12 22 11 50
0 26 2 47 5 46 3 0 20 -21 36 -47 17 -26 35 -46 40 -45 6 2 11 37 13 79 2 59
0 75 -10 71 -8 -2 -13 -21 -12 -50 0 -26 -2 -47 -5 -47 -3 0 -19 23 -36 50
-29 50 -36 56 -48 43z"/>
<path d="M1893 308 c-21 -26 -54 -131 -44 -141 6 -6 13 -1 20 12 16 28 67 29
76 1 7 -21 20 -26 29 -11 7 11 -47 144 -61 148 -5 2 -15 -2 -20 -9z m32 -65
c5 -19 2 -23 -14 -23 -23 0 -24 3 -15 38 7 26 18 20 29 -15z"/>
<path d="M2016 299 c-59 -46 -15 -149 58 -135 39 8 56 24 56 52 0 17 -6 24
-20 26 -11 0 -25 1 -32 2 -6 1 -13 -5 -15 -11 -3 -8 4 -13 17 -13 28 0 21 -24
-9 -28 -12 -2 -29 2 -37 8 -17 15 -19 61 -2 78 17 17 55 15 62 -3 8 -22 26
-18 26 5 0 40 -62 52 -104 19z"/>
<path d="M2162 308 c-4 -4 -5 -36 -4 -72 l4 -66 44 0 c24 0 47 0 51 -1 4 0 9
4 11 10 2 7 -12 11 -36 11 -31 0 -41 4 -45 20 -4 17 0 20 34 20 29 0 39 4 39
16 0 12 -9 15 -37 12 -29 -2 -38 1 -38 12 0 11 13 16 43 18 59 4 50 27 -11 27
-26 1 -51 -3 -55 -7z"/>
<path d="M2294 307 c-9 -23 0 -142 11 -142 6 0 12 25 15 55 l6 55 8 -46 c14
-81 39 -91 52 -21 12 66 23 71 24 10 0 -32 5 -58 10 -58 13 0 13 147 0 155
-18 11 -38 -14 -45 -56 -8 -47 -16 -43 -30 14 -10 43 -40 63 -51 34z"/>
<path d="M2471 312 c-7 -2 -11 -30 -11 -73 l0 -69 50 0 c28 0 53 0 57 -1 4 0
9 4 11 10 2 7 -14 11 -42 11 -39 0 -46 3 -46 20 0 17 7 20 41 20 28 0 39 4 36
13 -2 6 -19 12 -38 13 -23 0 -35 5 -37 16 -3 13 6 17 40 20 24 2 41 7 38 13
-5 10 -76 15 -99 7z"/>
<path d="M2604 306 c-9 -23 0 -141 11 -141 6 0 11 22 13 49 l3 49 35 -52 c33
-48 53 -63 55 -41 1 6 1 33 1 60 0 79 -1 90 -11 90 -6 0 -11 -24 -13 -52 l-3
-53 -33 53 c-34 53 -49 63 -58 38z"/>
<path d="M2745 311 c-12 -11 -3 -21 20 -21 23 0 24 -4 27 -62 2 -35 8 -63 13
-63 6 0 11 28 13 63 3 59 4 62 28 62 16 0 24 5 22 12 -4 12 -113 20 -123 9z"/>
</g>
</svg>
